{
	"patcher" : 	{
		"fileversion" : 1,
		"appversion" : 		{
			"major" : 8,
			"minor" : 1,
			"revision" : 5,
			"architecture" : "x64",
			"modernui" : 1
		}
,
		"classnamespace" : "box",
		"rect" : [ 699.0, 146.0, 817.0, 609.0 ],
		"bglocked" : 0,
		"openinpresentation" : 1,
		"default_fontsize" : 12.0,
		"default_fontface" : 0,
		"default_fontname" : "Arial",
		"gridonopen" : 1,
		"gridsize" : [ 15.0, 15.0 ],
		"gridsnaponopen" : 1,
		"objectsnaponopen" : 1,
		"statusbarvisible" : 2,
		"toolbarvisible" : 1,
		"lefttoolbarpinned" : 0,
		"toptoolbarpinned" : 0,
		"righttoolbarpinned" : 0,
		"bottomtoolbarpinned" : 0,
		"toolbars_unpinned_last_save" : 0,
		"tallnewobj" : 0,
		"boxanimatetime" : 200,
		"enablehscroll" : 1,
		"enablevscroll" : 1,
		"devicewidth" : 0.0,
		"description" : "",
		"digest" : "",
		"tags" : "",
		"style" : "",
		"subpatcher_template" : "",
		"assistshowspatchername" : 0,
		"boxes" : [ 			{
				"box" : 				{
					"fontsize" : 20.0,
					"id" : "obj-3",
					"maxclass" : "message",
					"numinlets" : 2,
					"numoutlets" : 1,
					"outlettype" : [ "" ],
					"patching_rect" : [ 499.0, 541.0, 92.0, 31.0 ],
					"presentation" : 1,
					"presentation_rect" : [ 494.0, 370.0, 100.0, 31.0 ],
					"text" : "dupontgu"
				}

			}
, 			{
				"box" : 				{
					"id" : "obj-6",
					"linecount" : 2,
					"maxclass" : "message",
					"numinlets" : 2,
					"numoutlets" : 1,
					"outlettype" : [ "" ],
					"patching_rect" : [ 499.0, 580.0, 264.0, 35.0 ],
					"presentation_linecount" : 2,
					"text" : ";\rmax launchbrowser https://github.com/dupontgu"
				}

			}
, 			{
				"box" : 				{
					"fontface" : 1,
					"fontsize" : 24.0,
					"id" : "obj-7",
					"maxclass" : "comment",
					"numinlets" : 1,
					"numoutlets" : 0,
					"patching_rect" : [ 368.0, 539.0, 124.0, 33.0 ],
					"presentation" : 1,
					"presentation_rect" : [ 368.0, 370.0, 120.0, 33.0 ],
					"text" : "GitHub -> "
				}

			}
, 			{
				"box" : 				{
					"fontface" : 1,
					"fontsize" : 44.0,
					"id" : "obj-1",
					"maxclass" : "comment",
					"numinlets" : 1,
					"numoutlets" : 0,
					"patching_rect" : [ 229.0, 658.0, 381.0, 56.0 ],
					"presentation" : 1,
					"presentation_rect" : [ 242.0, 508.0, 337.0, 56.0 ],
					"text" : "Let's talk Max."
				}

			}
, 			{
				"box" : 				{
					"fontsize" : 20.0,
					"id" : "obj-18",
					"maxclass" : "message",
					"numinlets" : 2,
					"numoutlets" : 1,
					"outlettype" : [ "" ],
					"patching_rect" : [ 559.0, 460.0, 92.0, 31.0 ],
					"presentation" : 1,
					"presentation_rect" : [ 550.0, 325.0, 100.0, 31.0 ],
					"text" : "dupontgu"
				}

			}
, 			{
				"box" : 				{
					"id" : "obj-19",
					"linecount" : 2,
					"maxclass" : "message",
					"numinlets" : 2,
					"numoutlets" : 1,
					"outlettype" : [ "" ],
					"patching_rect" : [ 559.0, 499.0, 268.0, 35.0 ],
					"text" : ";\rmax launchbrowser https://hackaday.io/dupontgu"
				}

			}
, 			{
				"box" : 				{
					"fontface" : 1,
					"fontsize" : 24.0,
					"id" : "obj-20",
					"maxclass" : "comment",
					"numinlets" : 1,
					"numoutlets" : 0,
					"patching_rect" : [ 368.0, 460.0, 181.0, 33.0 ],
					"presentation" : 1,
					"presentation_rect" : [ 368.0, 325.0, 180.0, 33.0 ],
					"text" : "hackaday.io -> "
				}

			}
, 			{
				"box" : 				{
					"fontsize" : 20.0,
					"id" : "obj-15",
					"maxclass" : "message",
					"numinlets" : 2,
					"numoutlets" : 1,
					"outlettype" : [ "" ],
					"patching_rect" : [ 529.0, 362.0, 115.0, 31.0 ],
					"presentation" : 1,
					"presentation_rect" : [ 516.0, 278.0, 131.0, 31.0 ],
					"text" : "Guy Dupont"
				}

			}
, 			{
				"box" : 				{
					"id" : "obj-16",
					"linecount" : 2,
					"maxclass" : "message",
					"numinlets" : 2,
					"numoutlets" : 1,
					"outlettype" : [ "" ],
					"patching_rect" : [ 529.0, 401.0, 326.0, 35.0 ],
					"text" : ";\rmax launchbrowser https://www.youtube.com/c/GuyDupont/"
				}

			}
, 			{
				"box" : 				{
					"fontface" : 1,
					"fontsize" : 24.0,
					"id" : "obj-17",
					"maxclass" : "comment",
					"numinlets" : 1,
					"numoutlets" : 0,
					"patching_rect" : [ 368.0, 362.0, 146.0, 33.0 ],
					"presentation" : 1,
					"presentation_rect" : [ 368.0, 277.0, 146.0, 33.0 ],
					"text" : "YouTube -> "
				}

			}
, 			{
				"box" : 				{
					"fontsize" : 20.0,
					"id" : "obj-12",
					"maxclass" : "message",
					"numinlets" : 2,
					"numoutlets" : 1,
					"outlettype" : [ "" ],
					"patching_rect" : [ 507.0, 262.0, 131.0, 31.0 ],
					"presentation" : 1,
					"presentation_rect" : [ 494.0, 226.0, 131.0, 31.0 ],
					"text" : "@gvy_dvpont"
				}

			}
, 			{
				"box" : 				{
					"id" : "obj-13",
					"linecount" : 2,
					"maxclass" : "message",
					"numinlets" : 2,
					"numoutlets" : 1,
					"outlettype" : [ "" ],
					"patching_rect" : [ 507.0, 301.0, 274.0, 35.0 ],
					"text" : ";\rmax launchbrowser https://twitter.com/gvy_dvpont"
				}

			}
, 			{
				"box" : 				{
					"fontface" : 1,
					"fontsize" : 24.0,
					"id" : "obj-14",
					"maxclass" : "comment",
					"numinlets" : 1,
					"numoutlets" : 0,
					"patching_rect" : [ 368.0, 261.0, 124.0, 33.0 ],
					"presentation" : 1,
					"presentation_rect" : [ 368.0, 225.0, 124.0, 33.0 ],
					"text" : "Twitter -> "
				}

			}
, 			{
				"box" : 				{
					"fontsize" : 20.0,
					"id" : "obj-11",
					"maxclass" : "message",
					"numinlets" : 2,
					"numoutlets" : 1,
					"outlettype" : [ "" ],
					"patching_rect" : [ 566.0, 176.0, 243.0, 31.0 ],
					"presentation" : 1,
					"presentation_rect" : [ 567.0, 176.0, 173.0, 31.0 ],
					"text" : "Pison Technology"
				}

			}
, 			{
				"box" : 				{
					"id" : "obj-8",
					"linecount" : 2,
					"maxclass" : "message",
					"numinlets" : 2,
					"numoutlets" : 1,
					"outlettype" : [ "" ],
					"patching_rect" : [ 566.0, 213.833333333333314, 267.0, 35.0 ],
					"text" : ";\rmax launchbrowser https://pisontechnology.com/"
				}

			}
, 			{
				"box" : 				{
					"fontface" : 1,
					"fontsize" : 24.0,
					"id" : "obj-5",
					"maxclass" : "comment",
					"numinlets" : 1,
					"numoutlets" : 0,
					"patching_rect" : [ 368.0, 175.0, 200.0, 33.0 ],
					"presentation" : 1,
					"presentation_rect" : [ 368.0, 175.0, 200.0, 33.0 ],
					"text" : "Software lead -> "
				}

			}
, 			{
				"box" : 				{
					"fontface" : 1,
					"fontsize" : 40.0,
					"id" : "obj-4",
					"linecount" : 2,
					"maxclass" : "comment",
					"numinlets" : 1,
					"numoutlets" : 0,
					"patching_rect" : [ 376.0, 48.0, 346.0, 96.0 ],
					"presentation" : 1,
					"presentation_linecount" : 2,
					"presentation_rect" : [ 376.0, 48.0, 346.0, 96.0 ],
					"text" : "Hello, Hackaday!\nI'm Guy."
				}

			}
, 			{
				"box" : 				{
					"autofit" : 1,
					"forceaspect" : 1,
					"id" : "obj-2",
					"maxclass" : "fpic",
					"numinlets" : 1,
					"numoutlets" : 1,
					"outlettype" : [ "jit_matrix" ],
					"patching_rect" : [ 66.0, 52.0, 269.0, 358.666666666666629 ],
					"pic" : "86bafedb48439443e8953bc3b87efdcb.png",
					"presentation" : 1,
					"presentation_rect" : [ 66.0, 52.0, 269.0, 358.666666666666629 ]
				}

			}
 ],
		"lines" : [ 			{
				"patchline" : 				{
					"destination" : [ "obj-8", 0 ],
					"source" : [ "obj-11", 0 ]
				}

			}
, 			{
				"patchline" : 				{
					"destination" : [ "obj-13", 0 ],
					"source" : [ "obj-12", 0 ]
				}

			}
, 			{
				"patchline" : 				{
					"destination" : [ "obj-16", 0 ],
					"source" : [ "obj-15", 0 ]
				}

			}
, 			{
				"patchline" : 				{
					"destination" : [ "obj-19", 0 ],
					"source" : [ "obj-18", 0 ]
				}

			}
, 			{
				"patchline" : 				{
					"destination" : [ "obj-6", 0 ],
					"source" : [ "obj-3", 0 ]
				}

			}
 ],
		"dependency_cache" : [ 			{
				"name" : "86bafedb48439443e8953bc3b87efdcb.png",
				"bootpath" : "~/Documents/dev/remoticon-2020-max-workshop/Remoticon2020_Repo/media",
				"patcherrelativepath" : "../media",
				"type" : "PNG",
				"implicit" : 1
			}
 ],
		"autosave" : 0
	}

}
