{
	"patcher" : 	{
		"fileversion" : 1,
		"appversion" : 		{
			"major" : 8,
			"minor" : 1,
			"revision" : 5,
			"architecture" : "x64",
			"modernui" : 1
		}
,
		"classnamespace" : "box",
		"rect" : [ 526.0, 212.0, 953.0, 784.0 ],
		"bglocked" : 0,
		"openinpresentation" : 0,
		"default_fontsize" : 12.0,
		"default_fontface" : 0,
		"default_fontname" : "Arial",
		"gridonopen" : 1,
		"gridsize" : [ 15.0, 15.0 ],
		"gridsnaponopen" : 1,
		"objectsnaponopen" : 1,
		"statusbarvisible" : 2,
		"toolbarvisible" : 1,
		"lefttoolbarpinned" : 0,
		"toptoolbarpinned" : 0,
		"righttoolbarpinned" : 0,
		"bottomtoolbarpinned" : 0,
		"toolbars_unpinned_last_save" : 0,
		"tallnewobj" : 0,
		"boxanimatetime" : 200,
		"enablehscroll" : 1,
		"enablevscroll" : 1,
		"devicewidth" : 0.0,
		"description" : "",
		"digest" : "",
		"tags" : "",
		"style" : "",
		"subpatcher_template" : "",
		"assistshowspatchername" : 0,
		"boxes" : [ 			{
				"box" : 				{
					"fontface" : 0,
					"fontsize" : 16.0,
					"id" : "obj-16",
					"linecount" : 3,
					"maxclass" : "comment",
					"numinlets" : 1,
					"numoutlets" : 0,
					"patching_rect" : [ 213.0, 109.0, 499.0, 60.0 ],
					"presentation_linecount" : 5,
					"text" : "Uses Java's Robot library under the hood:\nhttps://docs.oracle.com/javase/7/docs/api/java/awt/Robot.html\nYou may need to give Max accessibility access for this to work",
					"textcolor" : [ 0.0, 0.0, 0.0, 1.0 ],
					"textjustification" : 1
				}

			}
, 			{
				"box" : 				{
					"bubble" : 1,
					"fontname" : "Arial",
					"fontsize" : 13.0,
					"id" : "obj-15",
					"linecount" : 2,
					"maxclass" : "comment",
					"numinlets" : 1,
					"numoutlets" : 0,
					"patching_rect" : [ 645.0, 420.0, 150.0, 40.0 ],
					"presentation_linecount" : 2,
					"text" : "Break symbol into individual characters"
				}

			}
, 			{
				"box" : 				{
					"fontface" : 1,
					"fontsize" : 20.0,
					"id" : "obj-14",
					"linecount" : 2,
					"maxclass" : "comment",
					"numinlets" : 1,
					"numoutlets" : 0,
					"patching_rect" : [ 240.0, 23.0, 445.0, 51.0 ],
					"presentation_linecount" : 2,
					"text" : "mxj autobot\nUse Max as a virtual keyboard/mouse",
					"textcolor" : [ 0.0, 0.0, 0.0, 1.0 ],
					"textjustification" : 1
				}

			}
, 			{
				"box" : 				{
					"bubble" : 1,
					"fontname" : "Arial",
					"fontsize" : 13.0,
					"id" : "obj-13",
					"linecount" : 3,
					"maxclass" : "comment",
					"numinlets" : 1,
					"numoutlets" : 0,
					"patching_rect" : [ 645.0, 357.0, 166.0, 54.0 ],
					"presentation_linecount" : 3,
					"text" : "Make sure we're only passing symbols through"
				}

			}
, 			{
				"box" : 				{
					"bubble" : 1,
					"fontname" : "Arial",
					"fontsize" : 13.0,
					"id" : "obj-26",
					"linecount" : 3,
					"maxclass" : "comment",
					"numinlets" : 1,
					"numoutlets" : 0,
					"patching_rect" : [ 634.0, 245.0, 166.0, 54.0 ],
					"presentation_linecount" : 3,
					"text" : "give yourself time to put your cursor in a text box somewhere"
				}

			}
, 			{
				"box" : 				{
					"arrows" : 2,
					"border" : 5.0,
					"id" : "obj-12",
					"justification" : 3,
					"maxclass" : "live.line",
					"numinlets" : 1,
					"numoutlets" : 0,
					"patching_rect" : [ 528.0, 585.0, 84.0, 45.0 ]
				}

			}
, 			{
				"box" : 				{
					"arrows" : 2,
					"border" : 5.0,
					"id" : "obj-11",
					"justification" : 4,
					"maxclass" : "live.line",
					"numinlets" : 1,
					"numoutlets" : 0,
					"patching_rect" : [ 537.0, 489.0, 82.0, 50.0 ]
				}

			}
, 			{
				"box" : 				{
					"fontsize" : 20.0,
					"id" : "obj-8",
					"linecount" : 5,
					"maxclass" : "comment",
					"numinlets" : 1,
					"numoutlets" : 0,
					"patching_rect" : [ 125.0, 498.0, 416.0, 118.0 ],
					"text" : "WARNING:\nConnecting anything to autobot will allow Max to act as a virtual keyboard. Awesome for automating key commands... or accidentally deleting work/emailing your boss. ",
					"textcolor" : [ 0.996078431372549, 0.0, 0.0, 1.0 ],
					"textjustification" : 1
				}

			}
, 			{
				"box" : 				{
					"id" : "obj-6",
					"maxclass" : "newobj",
					"numinlets" : 2,
					"numoutlets" : 1,
					"outlettype" : [ "bang" ],
					"patching_rect" : [ 562.0, 261.0, 67.0, 22.0 ],
					"text" : "delay 8000"
				}

			}
, 			{
				"box" : 				{
					"id" : "obj-2",
					"maxclass" : "button",
					"numinlets" : 1,
					"numoutlets" : 1,
					"outlettype" : [ "bang" ],
					"parameter_enable" : 0,
					"patching_rect" : [ 562.0, 219.0, 24.0, 24.0 ]
				}

			}
, 			{
				"box" : 				{
					"id" : "obj-9",
					"maxclass" : "message",
					"numinlets" : 2,
					"numoutlets" : 1,
					"outlettype" : [ "" ],
					"patching_rect" : [ 562.0, 326.0, 109.0, 22.0 ],
					"text" : "Fun but dangerous"
				}

			}
, 			{
				"box" : 				{
					"id" : "obj-39",
					"maxclass" : "newobj",
					"numinlets" : 1,
					"numoutlets" : 1,
					"outlettype" : [ "" ],
					"patching_rect" : [ 604.0, 624.0, 71.0, 22.0 ],
					"text" : "mxj autobot"
				}

			}
, 			{
				"box" : 				{
					"id" : "obj-36",
					"maxclass" : "message",
					"numinlets" : 2,
					"numoutlets" : 1,
					"outlettype" : [ "" ],
					"patching_rect" : [ 604.0, 471.0, 73.0, 22.0 ],
					"text" : "keypress $1"
				}

			}
, 			{
				"box" : 				{
					"id" : "obj-33",
					"maxclass" : "newobj",
					"numinlets" : 1,
					"numoutlets" : 1,
					"outlettype" : [ "int" ],
					"patching_rect" : [ 604.0, 429.0, 33.0, 22.0 ],
					"text" : "spell"
				}

			}
, 			{
				"box" : 				{
					"id" : "obj-27",
					"maxclass" : "newobj",
					"numinlets" : 1,
					"numoutlets" : 6,
					"outlettype" : [ "signal", "bang", "int", "float", "", "list" ],
					"patching_rect" : [ 562.0, 373.0, 71.5, 22.0 ],
					"text" : "typeroute~"
				}

			}
 ],
		"lines" : [ 			{
				"patchline" : 				{
					"destination" : [ "obj-6", 0 ],
					"source" : [ "obj-2", 0 ]
				}

			}
, 			{
				"patchline" : 				{
					"destination" : [ "obj-33", 0 ],
					"source" : [ "obj-27", 4 ]
				}

			}
, 			{
				"patchline" : 				{
					"destination" : [ "obj-36", 0 ],
					"source" : [ "obj-33", 0 ]
				}

			}
, 			{
				"patchline" : 				{
					"destination" : [ "obj-9", 0 ],
					"source" : [ "obj-6", 0 ]
				}

			}
, 			{
				"patchline" : 				{
					"destination" : [ "obj-27", 0 ],
					"source" : [ "obj-9", 0 ]
				}

			}
 ],
		"dependency_cache" : [  ],
		"autosave" : 0
	}

}
